<?xml version="1.0" encoding="utf-8"?>
<!-- Generator: Adobe Illustrator 16.0.0, SVG Export Plug-In . SVG Version: 6.00 Build 0)  -->
<!DOCTYPE svg PUBLIC "-//W3C//DTD SVG 1.1//EN" "http://www.w3.org/Graphics/SVG/1.1/DTD/svg11.dtd">
<svg version="1.1" xmlns="http://www.w3.org/2000/svg" xmlns:xlink="http://www.w3.org/1999/xlink" x="0px" y="0px"
	 width="841.89px" height="1190.55px" viewBox="0 0 841.89 1190.55" enable-background="new 0 0 841.89 1190.55"
	 xml:space="preserve">
<g id="pic" display="none">
	
		<image display="inline" overflow="visible" width="84" height="105" xlink:href="../../image1.PNG"  transform="matrix(6.2256 0 0 6.2256 159.6064 268.7568)">
	</image>
</g>
<g id="Layer_2" display="none" opacity="0.9">
</g>
<g id="Layer_3">
	<path fill="#414142" d="M770.959,1162.27c0,14.684-11.902,26.585-26.582,26.585H97.514c-14.681,0-26.583-11.901-26.583-26.585
		V28.277c0-14.682,11.902-26.583,26.583-26.583h646.863c14.68,0,26.582,11.901,26.582,26.583V1162.27z"/>
	<rect x="114.498" y="139.042" fill="#A7A9AB" width="612.895" height="868.389"/>
	<rect x="470.296" y="406.59" fill="#A7A9AB" width="352.477" height="250.329"/>
	<rect x="20.593" y="407.829" fill="#A7A9AB" width="352.477" height="250.327"/>
	<path fill="#414142" d="M809.083,391.317H479.449c-15.713,0-28.458,12.789-28.458,28.563v92.832h-60.094V419.88
		c0-15.774-12.74-28.563-28.457-28.563H32.808c-15.716,0-28.457,12.789-28.457,28.563v223.749c0,15.774,12.741,28.564,28.457,28.564
		h329.633c15.716,0,28.457-12.79,28.457-28.564v-92.832h60.094v92.832c0,15.774,12.745,28.564,28.458,28.564h329.634
		c15.719,0,28.458-12.79,28.458-28.564V419.88C837.541,404.106,824.802,391.317,809.083,391.317z M344.23,611.649
		c0,11.968-9.664,21.664-21.587,21.664H72.604c-11.922,0-21.585-9.696-21.585-21.664V451.068c0-11.968,9.663-21.668,21.585-21.668
		h250.04c11.923,0,21.587,9.701,21.587,21.668V611.649z M790.874,611.649c0,11.968-9.662,21.664-21.59,21.664H519.248
		c-11.927,0-21.585-9.696-21.585-21.664V451.068c0-11.968,9.658-21.668,21.585-21.668h250.036c11.928,0,21.59,9.701,21.59,21.668
		V611.649z"/>
	<circle fill="#A7A9AB" cx="420.944" cy="1101.948" r="61.285"/>
	<path fill="#414142" d="M710.39,736.874c-24.946,61.103-89.247,99.533-157.371,89.144c-67.432-10.29-13.733-129.5-128.689-131.934
		c-0.844-0.025-3.231-0.06-3.584-0.06c0,0,0,0,0,0.004l0,0c0-0.004,0-0.004,0-0.004c-0.015,0-0.029,0-0.044,0
		c-0.016,0-2.575,0.024-3.828,0.064c-114.569,2.626-60.625,121.646-128.001,131.929c-68.124,10.39-132.422-28.041-157.373-89.144
		c-0.959,11.286-0.625,22.866,1.16,34.554c12.176,79.823,86.754,134.656,166.572,122.481
		c63.209-9.645,110.714-58.429,121.714-117.95c11.002,59.521,58.506,108.306,121.716,117.95
		c79.817,12.175,154.394-42.658,166.569-122.481C711.019,759.74,711.351,748.16,710.39,736.874z"/>
	<linearGradient id="SVGID_1_" gradientUnits="userSpaceOnUse" x1="77.4341" y1="455.7993" x2="143.9201" y2="522.2853">
		<stop  offset="0" style="stop-color:#FFFFFF"/>
		<stop  offset="1" style="stop-color:#FFFFFF;stop-opacity:0"/>
	</linearGradient>
	<path fill="url(#SVGID_1_)" d="M216.909,449.296H93.134c-12.263,0-22.203,9.94-22.203,22.204v123.774L216.909,449.296z"/>
	
		<linearGradient id="SVGID_2_" gradientUnits="userSpaceOnUse" x1="1.3306" y1="455.7993" x2="67.8166" y2="522.2853" gradientTransform="matrix(-1 0 0 1 765.7861 0)">
		<stop  offset="0" style="stop-color:#FFFFFF"/>
		<stop  offset="1" style="stop-color:#FFFFFF;stop-opacity:0"/>
	</linearGradient>
	<path fill="url(#SVGID_2_)" d="M624.98,449.296h123.773c12.265,0,22.205,9.94,22.205,22.204v123.774L624.98,449.296z"/>
	<path fill="#414142" d="M88.652,17.201v175.006c0,0,137.469,56.593,332.293,56.593c47.221,0,91.056-3.329,130.399-8.367
		l15.537-85.649l15.229,81.241c105.214-16.691,171.126-43.818,171.126-43.818V17.201H88.652z"/>
	<path display="none" fill="#CFCECE" d="M247.074,1058.354c-0.21-1.32-0.317-2.713-0.317-4.184c0-5.766,1.605-10.26,4.816-13.482
		c3.211-3.223,7.722-4.834,13.535-4.834c5.32,0,9.645,0.891,12.973,2.672v8.016c-3-1.875-6.481-2.813-10.441-2.813
		c-6.211,0-9.504,2.613-9.879,7.84h23.484v4.676c0,0.725-0.032,1.426-0.084,2.109H247.074z"/>
	<path display="none" fill="#CFCECE" d="M247.075,1054.167c-0.21,1.32-0.317,2.713-0.317,4.184c0,5.766,1.605,10.26,4.816,13.482
		c3.211,3.223,7.722,4.834,13.535,4.834c5.32,0,9.645-0.891,12.973-2.672v-8.016c-3,1.875-6.481,2.813-10.441,2.813
		c-6.211,0-9.504-2.613-9.879-7.84h23.484v-4.676c0-0.725-0.032-1.426-0.084-2.109H247.075z"/>
	<text transform="matrix(1 0 0 1 188.457 1076.667)" display="none" fill="#414042" font-family="'KhmerUI-Bold'" font-size="72">D</text>
	<text transform="matrix(1 0 0 1 444.6074 1077.6611)" display="none" fill="#414042" font-family="'KhmerUI-Bold'" font-size="72">s</text>
	<text transform="matrix(1 0 0 1 318.8867 1076.667)" display="none" fill="#414042" font-family="'KhmerUI-Bold'" font-size="72">P</text>
	<g display="none">
		<path display="inline" fill="#414042" d="M244.069,1061.792v-11.109H282.5v11.109H244.069z"/>
	</g>
</g>
</svg>
